<?xml version="1.0" encoding="utf-8"?>
<!-- Generator: Adobe Illustrator 27.7.0, SVG Export Plug-In . SVG Version: 6.00 Build 0)  -->
<svg version="1.1" id="Layer_1" xmlns="http://www.w3.org/2000/svg"
	xmlns:xlink="http://www.w3.org/1999/xlink" x="0px" y="0px"
	viewBox="0 0 512 512" style="enable-background:new 0 0 512 512;" xml:space="preserve">
<g>
	<path fill="#ffffff" d="M179.2,204.67c0.02,42.42,34.37,76.78,76.8,76.8c42.42-0.02,76.78-34.37,76.8-76.8
		c-0.02-42.42-34.37-76.78-76.8-76.8C213.58,127.89,179.22,162.25,179.2,204.67c0,14.14,11.46,25.6,25.6,25.6
		c14.14,0,25.6-11.46,25.6-25.6c0.03-14.13,11.47-25.57,25.6-25.6c14.13,0.03,25.57,11.47,25.6,25.6
		c-0.03,14.13-11.47,25.57-25.6,25.6c-14.13-0.03-25.57-11.47-25.6-25.6c0-14.14-11.46-25.6-25.6-25.6
		C190.66,179.07,179.2,190.54,179.2,204.67L179.2,204.67z"/>
	<path fill="#ffffff" d="M312.29,324.92c-18.03,5.14-36.69,7.75-55.44,7.75l-0.76,0l-0.09,0c-41.33-0.08-78.01-11.19-112.52-34.1
		c-34.43-22.94-66.64-58.25-95.93-107.07l-21.95,13.17l21.95,13.17c29.28-48.82,61.49-84.13,95.93-107.07
		c34.51-22.91,71.18-34.02,112.52-34.1c41.33,0.08,78.01,11.19,112.52,34.1c34.43,22.94,66.64,58.25,95.93,107.07
		c7.27,12.12,23,16.05,35.12,8.78c12.12-7.27,16.05-23,8.78-35.12c-32.15-53.58-69.06-95.07-111.43-123.33
		C354.63,39.88,306.83,25.4,256,25.48c-50.83-0.08-98.63,14.41-140.92,42.7C72.72,96.44,35.81,137.92,3.66,191.5
		c-4.87,8.12-4.87,18.22,0,26.34c32.15,53.58,69.06,95.07,111.43,123.33c42.29,28.29,90.09,42.78,140.92,42.7l-0.09,0
		l0.94,0c23.5,0,46.88-3.27,69.48-9.71c13.6-3.88,21.48-18.04,17.6-31.64C340.05,328.92,325.89,321.05,312.29,324.92
		L312.29,324.92z"/>
	<path fill="#ffffff" d="M409.6,307.07v76.8c0,14.14,11.46,25.6,25.6,25.6c14.14,0,25.6-11.46,25.6-25.6v-76.8
		c0-14.14-11.46-25.6-25.6-25.6C421.06,281.47,409.6,292.93,409.6,307.07"/>
	<path fill="#ffffff" d="M409.6,460.67v0.26c0,14.14,11.46,25.6,25.6,25.6c14.14,0,25.6-11.46,25.6-25.6v-0.26
		c0-14.14-11.46-25.6-25.6-25.6C421.06,435.07,409.6,446.53,409.6,460.67"/>
</g>
</svg>
